<svg
			width="177"
			height="89"
			viewBox="0 0 177 89"
			fill="none"
			xmlns="http://www.w3.org/2000/svg"
		>
			<path
				d="M0 25.4534H14.5674V32.1981C16.1234 29.7358 18.0282 27.8622 20.2817 26.5775C22.5352 25.2393 25.1643 24.5702 28.169 24.5702C28.5446 24.5702 28.947 24.5702 29.3762 24.5702C29.8591 24.5702 30.3957 24.6237 30.9859 24.7307V38.6217C29.0543 37.6582 26.9618 37.1764 24.7082 37.1764C21.328 37.1764 18.7793 38.1935 17.0624 40.2276C15.399 42.2082 14.5674 45.1256 14.5674 48.9797V66.6445H0V25.4534Z"
				fill="white"
			/>
			<path
				d="M51.4832 45.9285C51.4832 47.2668 51.7247 48.5247 52.2076 49.7024C52.6905 50.8265 53.3343 51.8168 54.1392 52.6733C54.9977 53.5298 55.9903 54.1989 57.117 54.6806C58.2975 55.1624 59.5583 55.4033 60.8997 55.4033C62.1875 55.4033 63.3947 55.1624 64.5215 54.6806C65.7019 54.1989 66.6945 53.5298 67.4993 52.6733C68.3578 51.8168 69.0285 50.8265 69.5114 49.7024C70.0479 48.5782 70.3162 47.3738 70.3162 46.0891C70.3162 44.8044 70.0479 43.6 69.5114 42.4759C69.0285 41.2982 68.3578 40.2811 67.4993 39.4247C66.6945 38.5682 65.7019 37.8991 64.5215 37.4173C63.3947 36.9355 62.1875 36.6946 60.8997 36.6946C59.5583 36.6946 58.2975 36.9355 57.117 37.4173C55.9903 37.8991 54.9977 38.5682 54.1392 39.4247C53.3343 40.2811 52.6905 41.2714 52.2076 42.3956C51.7247 43.4662 51.4832 44.6438 51.4832 45.9285ZM69.8333 25.4534H84.4812V66.6445H69.8333V62.0677C66.7213 65.9754 62.5094 67.9292 57.1975 67.9292C54.1928 67.9292 51.4296 67.394 48.9078 66.3234C46.386 65.1992 44.1861 63.6469 42.3082 61.6663C40.4303 59.6857 38.9547 57.3571 37.8816 54.6806C36.8622 52.0042 36.3525 49.0868 36.3525 45.9285C36.3525 42.9844 36.8622 40.2008 37.8816 37.5779C38.9011 34.9014 40.3229 32.5729 42.1472 30.5923C43.9715 28.6117 46.1445 27.0593 48.6663 25.9352C51.1881 24.7575 53.9782 24.1687 57.0366 24.1687C62.1875 24.1687 66.453 25.9619 69.8333 29.5484V25.4534Z"
				fill="white"
			/>
			<path
				d="M108.962 25.4534V66.6445H94.3944V25.4534H108.962ZM93.4286 9.63535C93.4286 8.51123 93.6432 7.4674 94.0725 6.50387C94.5017 5.4868 95.0919 4.60356 95.8431 3.85414C96.5943 3.10472 97.4528 2.5159 98.4186 2.08766C99.438 1.65942 100.511 1.4453 101.638 1.4453C102.765 1.4453 103.811 1.65942 104.777 2.08766C105.796 2.5159 106.681 3.10472 107.433 3.85414C108.184 4.60356 108.774 5.4868 109.203 6.50387C109.633 7.4674 109.847 8.51123 109.847 9.63535C109.847 10.7595 109.633 11.8301 109.203 12.8471C108.774 13.8107 108.184 14.6672 107.433 15.4166C106.681 16.166 105.796 16.7548 104.777 17.183C103.811 17.6113 102.765 17.8254 101.638 17.8254C100.511 17.8254 99.438 17.6113 98.4186 17.183C97.4528 16.7548 96.5943 16.166 95.8431 15.4166C95.0919 14.6672 94.5017 13.8107 94.0725 12.8471C93.6432 11.8301 93.4286 10.7595 93.4286 9.63535Z"
				fill="white"
			/>
			<path d="M133.484 0V66.6445H118.917V0H133.484Z" fill="white" />
			<path
				d="M170.803 36.0523C168.12 34.6605 165.491 33.9646 162.915 33.9646C161.574 33.9646 160.474 34.2323 159.616 34.7676C158.811 35.3029 158.408 36.0255 158.408 36.9355C158.408 37.4173 158.462 37.8188 158.569 38.1399C158.73 38.4076 159.025 38.6752 159.455 38.9429C159.938 39.2105 160.608 39.4514 161.467 39.6655C162.379 39.8797 163.559 40.1473 165.008 40.4685C169.032 41.2714 172.037 42.7167 174.022 44.8044C176.007 46.8385 177 49.4615 177 52.6733C177 55.0821 176.517 57.2501 175.551 59.1771C174.586 61.1042 173.244 62.7369 171.527 64.0751C169.81 65.3598 167.744 66.3501 165.33 67.046C162.915 67.7954 160.26 68.1701 157.362 68.1701C151.782 68.1701 146.282 66.591 140.863 63.4328L146.175 53.155C150.253 55.9386 154.116 57.3304 157.765 57.3304C159.106 57.3304 160.206 57.0359 161.064 56.4471C161.923 55.8583 162.352 55.1089 162.352 54.1989C162.352 53.6636 162.272 53.2353 162.111 52.9142C162.003 52.5394 161.735 52.2183 161.306 51.9506C160.877 51.6294 160.233 51.3618 159.374 51.1477C158.569 50.88 157.496 50.6124 156.155 50.3447C151.648 49.4347 148.482 48.0965 146.658 46.33C144.887 44.51 144.002 42.0209 144.002 38.8626C144.002 36.5608 144.431 34.4999 145.29 32.6799C146.148 30.8064 147.382 29.2272 148.992 27.9425C150.602 26.6578 152.533 25.6675 154.787 24.9716C157.094 24.2757 159.643 23.9278 162.433 23.9278C166.993 23.9278 171.42 24.811 175.712 26.5775L170.803 36.0523Z"
				fill="white"
			/>
			<path
				d="M114.221 85.05H107.727L106.037 88.7256H103.572L111.077 72.6411L118.318 88.7256H115.813L114.221 85.05ZM113.288 82.9034L111.038 77.7576L108.68 82.9034H113.288Z"
				fill="white"
			/>
			<path
				d="M127.799 75.7384H122.513V79.3748H127.612V81.5214H122.513V88.7256H120.224V73.5919H127.799V75.7384Z"
				fill="white"
			/>
			<path
				d="M135.6 82.2761L140.296 88.7256H137.496L133.163 82.531H132.75V88.7256H130.461V73.5919H133.143C135.148 73.5919 136.595 73.9676 137.486 74.7191C138.468 75.5555 138.96 76.6598 138.96 78.032C138.96 79.1037 138.652 80.025 138.036 80.7961C137.42 81.5671 136.608 82.0605 135.6 82.2761ZM132.75 80.5412H133.477C135.645 80.5412 136.729 79.7146 136.729 78.0614C136.729 76.5128 135.675 75.7384 133.566 75.7384H132.75V80.5412Z"
				fill="white"
			/>
			<path
				d="M144.874 73.5919V88.7256H142.585V73.5919H144.874Z"
				fill="white"
			/>
			<path
				d="M159.729 74.4054V77.1107C158.406 76.0064 157.037 75.4542 155.622 75.4542C154.063 75.4542 152.75 76.0129 151.682 77.1303C150.608 78.2411 150.071 79.6003 150.071 81.2077C150.071 82.7956 150.608 84.1351 151.682 85.2264C152.757 86.3176 154.073 86.8633 155.632 86.8633C156.437 86.8633 157.122 86.7326 157.685 86.4712C158 86.3405 158.324 86.1641 158.658 85.9419C158.998 85.7197 159.355 85.4518 159.729 85.1382V87.8924C158.419 88.6308 157.043 89 155.602 89C153.434 89 151.584 88.2453 150.052 86.7358C148.525 85.2133 147.762 83.3772 147.762 81.2273C147.762 79.2997 148.401 77.5811 149.678 76.0717C151.25 74.2225 153.284 73.2979 155.779 73.2979C157.142 73.2979 158.458 73.667 159.729 74.4054Z"
				fill="white"
			/>
			<path
				d="M171.911 85.05H165.417L163.727 88.7256H161.261L168.767 72.6411L176.008 88.7256H173.503L171.911 85.05ZM170.978 82.9034L168.728 77.7576L166.37 82.9034H170.978Z"
				fill="white"
			/>
</svg>
